<mxfile host="Electron" modified="2024-04-12T05:35:25.125Z" agent="Mozilla/5.0 (Macintosh; Intel Mac OS X 10_15_7) AppleWebKit/537.36 (KHTML, like Gecko) draw.io/23.1.5 Chrome/120.0.6099.109 Electron/28.1.0 Safari/537.36" etag="TKBVgTC8UImF9iHOkZ-4" version="23.1.5" type="device">
  <diagram name="Page-1" id="EMT705Tx_JR4VmNtWtbU">
    <mxGraphModel dx="1593" dy="887" grid="1" gridSize="10" guides="1" tooltips="1" connect="1" arrows="1" fold="1" page="1" pageScale="1" pageWidth="1060" pageHeight="500" math="0" shadow="0">
      <root>
        <mxCell id="0" />
        <mxCell id="1" parent="0" />
        <mxCell id="GHTYQ7Oxa9TjjQKPl4bO-6" value="" style="rounded=1;whiteSpace=wrap;html=1;fillColor=#dae8fc;strokeWidth=4;strokeColor=none;" parent="1" vertex="1">
          <mxGeometry x="23" y="114" width="1015" height="360" as="geometry" />
        </mxCell>
        <mxCell id="uHRUemTuvMoK1wuL37Rp-8" value="" style="edgeStyle=orthogonalEdgeStyle;rounded=0;orthogonalLoop=1;jettySize=auto;html=1;fillColor=#f5f5f5;strokeColor=#999999;endArrow=block;endFill=1;strokeWidth=7;exitX=0.313;exitY=0.995;exitDx=0;exitDy=0;endSize=6;exitPerimeter=0;" parent="1" source="uHRUemTuvMoK1wuL37Rp-19" target="uHRUemTuvMoK1wuL37Rp-4" edge="1">
          <mxGeometry relative="1" as="geometry" />
        </mxCell>
        <mxCell id="uHRUemTuvMoK1wuL37Rp-9" value="" style="edgeStyle=orthogonalEdgeStyle;rounded=0;orthogonalLoop=1;jettySize=auto;html=1;entryX=0.5;entryY=0;entryDx=0;entryDy=0;fillColor=#f5f5f5;strokeColor=#999999;endArrow=block;endFill=1;strokeWidth=7;endSize=6;" parent="1" source="uHRUemTuvMoK1wuL37Rp-4" target="uHRUemTuvMoK1wuL37Rp-5" edge="1">
          <mxGeometry relative="1" as="geometry" />
        </mxCell>
        <mxCell id="uHRUemTuvMoK1wuL37Rp-4" value="&lt;b&gt;Auto-Plan&lt;/b&gt;&amp;nbsp;Training with&amp;nbsp;&lt;i&gt;n-D&lt;/i&gt; Parallelism&lt;span style=&quot;font-size: 20px;&quot;&gt;&lt;b&gt;*&lt;/b&gt;&lt;/span&gt;" style="rounded=1;whiteSpace=wrap;html=1;fontSize=24;fillColor=#3399FF;strokeColor=none;verticalAlign=middle;fontColor=#FFFFFF;" parent="1" vertex="1">
          <mxGeometry x="54" y="149" width="600" height="50" as="geometry" />
        </mxCell>
        <mxCell id="uHRUemTuvMoK1wuL37Rp-10" value="" style="edgeStyle=orthogonalEdgeStyle;rounded=0;orthogonalLoop=1;jettySize=auto;html=1;fillColor=#f5f5f5;strokeColor=#999999;endArrow=block;endFill=1;strokeWidth=7;endSize=6;" parent="1" source="uHRUemTuvMoK1wuL37Rp-5" target="uHRUemTuvMoK1wuL37Rp-7" edge="1">
          <mxGeometry relative="1" as="geometry" />
        </mxCell>
        <mxCell id="uHRUemTuvMoK1wuL37Rp-5" value="&lt;b&gt;Auto-Parallelize&lt;/b&gt; Model across Multiple Devices" style="rounded=1;whiteSpace=wrap;html=1;fontSize=24;fillColor=#3399FF;strokeColor=none;verticalAlign=middle;fontColor=#FFFFFF;" parent="1" vertex="1">
          <mxGeometry x="54" y="229" width="600" height="50" as="geometry" />
        </mxCell>
        <mxCell id="uHRUemTuvMoK1wuL37Rp-6" value="&lt;b&gt;Auto-Reshard&lt;/b&gt;&amp;nbsp;Distributed Model Checkpoints" style="rounded=1;whiteSpace=wrap;html=1;fontSize=24;fillColor=#3399FF;strokeColor=none;verticalAlign=middle;fontColor=#FFFFFF;" parent="1" vertex="1">
          <mxGeometry x="54" y="389" width="600" height="50" as="geometry" />
        </mxCell>
        <mxCell id="uHRUemTuvMoK1wuL37Rp-11" value="" style="edgeStyle=orthogonalEdgeStyle;rounded=0;orthogonalLoop=1;jettySize=auto;html=1;fillColor=#f5f5f5;strokeColor=#999999;endArrow=block;endFill=1;strokeWidth=7;endSize=6;" parent="1" source="uHRUemTuvMoK1wuL37Rp-7" target="uHRUemTuvMoK1wuL37Rp-6" edge="1">
          <mxGeometry relative="1" as="geometry" />
        </mxCell>
        <mxCell id="uHRUemTuvMoK1wuL37Rp-7" value="D&lt;span style=&quot;font-weight: normal;&quot;&gt;istributed &lt;/span&gt;Tensor &lt;span style=&quot;font-weight: normal;&quot;&gt;(&lt;/span&gt;DTensor&lt;span style=&quot;font-weight: normal;&quot;&gt;)&lt;/span&gt;" style="ellipse;whiteSpace=wrap;html=1;fontStyle=1;fontSize=24;fillColor=#3399FF;strokeColor=none;verticalAlign=middle;fontColor=#FFFFFF;" parent="1" vertex="1">
          <mxGeometry x="54" y="309" width="600" height="50" as="geometry" />
        </mxCell>
        <mxCell id="uHRUemTuvMoK1wuL37Rp-12" value="" style="shape=curlyBracket;whiteSpace=wrap;html=1;rounded=1;flipH=1;labelPosition=right;verticalLabelPosition=middle;align=left;verticalAlign=middle;fillColor=#CCCCCC;fontColor=#333333;strokeColor=#999999;strokeWidth=5;" parent="1" vertex="1">
          <mxGeometry x="658" y="144" width="40" height="220" as="geometry" />
        </mxCell>
        <mxCell id="uHRUemTuvMoK1wuL37Rp-16" value="&lt;b style=&quot;font-size: 20px;&quot;&gt;Eager &lt;br style=&quot;font-size: 20px;&quot;&gt;Only&lt;/b&gt;" style="shape=hexagon;perimeter=hexagonPerimeter2;whiteSpace=wrap;html=1;fixedSize=1;direction=south;fontSize=20;fillColor=#FF8000;strokeColor=none;fontColor=#FFFFFF;" parent="1" vertex="1">
          <mxGeometry x="708" y="149" width="80" height="210" as="geometry" />
        </mxCell>
        <mxCell id="uHRUemTuvMoK1wuL37Rp-17" value="&lt;b style=&quot;font-size: 20px;&quot;&gt;Eager &lt;/b&gt;&lt;br style=&quot;font-size: 20px;&quot;&gt;&lt;b style=&quot;font-size: 20px;&quot;&gt;x&lt;/b&gt;&lt;br style=&quot;font-size: 20px;&quot;&gt;&lt;b style=&quot;&quot;&gt;Compile&lt;span style=&quot;font-size: 16.6667px;&quot;&gt;*&lt;/span&gt;&lt;/b&gt;" style="shape=hexagon;perimeter=hexagonPerimeter2;whiteSpace=wrap;html=1;fixedSize=1;direction=south;fontSize=20;fillColor=#FF8000;strokeColor=none;fontColor=#FFFFFF;" parent="1" vertex="1">
          <mxGeometry x="908" y="148" width="100" height="210" as="geometry" />
        </mxCell>
        <mxCell id="GHTYQ7Oxa9TjjQKPl4bO-3" value="&lt;b style=&quot;font-size: 20px;&quot;&gt;Compile&lt;/b&gt;&lt;br&gt;&lt;b&gt;Only&lt;/b&gt;&lt;span style=&quot;font-size: 16.6667px;&quot;&gt;&lt;b&gt;*&lt;/b&gt;&lt;/span&gt;" style="shape=hexagon;perimeter=hexagonPerimeter2;whiteSpace=wrap;html=1;fixedSize=1;direction=south;fontSize=20;fillColor=#FF8000;strokeColor=none;fontColor=#FFFFFF;" parent="1" vertex="1">
          <mxGeometry x="798" y="148" width="100" height="210" as="geometry" />
        </mxCell>
        <mxCell id="GHTYQ7Oxa9TjjQKPl4bO-5" value="&lt;b style=&quot;font-size: 40px;&quot;&gt;veScale&lt;/b&gt;" style="text;html=1;align=center;verticalAlign=middle;whiteSpace=wrap;rounded=0;fontSize=40;fontColor=#333333;" parent="1" vertex="1">
          <mxGeometry x="898" y="409" width="60" height="30" as="geometry" />
        </mxCell>
        <mxCell id="uHRUemTuvMoK1wuL37Rp-19" value="" style="rounded=0;whiteSpace=wrap;html=1;fillColor=#B5739D;strokeColor=none;labelBackgroundColor=#E6D0DE;container=0;" parent="1" vertex="1">
          <mxGeometry x="56" y="30" width="952" height="64" as="geometry" />
        </mxCell>
        <mxCell id="uHRUemTuvMoK1wuL37Rp-2" value="&lt;font color=&quot;#ffffff&quot;&gt;&lt;b style=&quot;font-size: 24px;&quot;&gt;PyTorch-Native Model &lt;/b&gt;&lt;span style=&quot;font-size: 24px;&quot;&gt;(&lt;/span&gt;&lt;b style=&quot;font-size: 24px;&quot;&gt;Zero Code Change&lt;/b&gt;&lt;span style=&quot;font-size: 24px;&quot;&gt;)&lt;/span&gt;&lt;b style=&quot;font-size: 24px;&quot;&gt;&amp;nbsp;&lt;/b&gt;&lt;span style=&quot;font-size: 24px;&quot;&gt;on&lt;/span&gt;&lt;b style=&quot;font-size: 24px;&quot;&gt;&amp;nbsp;&lt;/b&gt;&lt;span style=&quot;font-size: 24px;&quot;&gt;a &lt;/span&gt;&lt;b style=&quot;font-size: 24px;&quot;&gt;Single Device&lt;/b&gt;&lt;/font&gt;" style="text;html=1;align=center;verticalAlign=middle;resizable=0;points=[];autosize=1;strokeColor=none;fillColor=none;fontSize=24;container=0;" parent="1" vertex="1">
          <mxGeometry x="178.00405873539108" y="43" width="730" height="40" as="geometry" />
        </mxCell>
        <mxCell id="uHRUemTuvMoK1wuL37Rp-1" value="" style="shape=actor;whiteSpace=wrap;html=1;fillColor=#E1D5E7;strokeColor=none;gradientColor=none;container=0;" parent="1" vertex="1">
          <mxGeometry x="98.00276595744681" y="42" width="37.49793617021276" height="39" as="geometry" />
        </mxCell>
      </root>
    </mxGraphModel>
  </diagram>
</mxfile>
